<?xml version="1.0" standalone="no"?>
<!DOCTYPE svg PUBLIC "-//W3C//DTD SVG 20010904//EN"
 "http://www.w3.org/TR/2001/REC-SVG-20010904/DTD/svg10.dtd">
<svg version="1.0" xmlns="http://www.w3.org/2000/svg"
 width="4113.000000pt" height="4113.000000pt" viewBox="0 0 4113.000000 4113.000000"
 preserveAspectRatio="xMidYMid meet">
<metadata>
Created by potrace 1.14, written by Peter Selinger 2001-2017
</metadata>
<g transform="translate(0.000000,4113.000000) scale(0.100000,-0.100000)"
fill="#000000" stroke="none">
<path d="M20245 41123 c-559 -27 -1053 -98 -1560 -224 -1851 -462 -3477 -1610
-4542 -3209 -711 -1066 -1140 -2279 -1258 -3555 -133 -1446 139 -2825 824
-4172 l109 -214 -2741 -4748 -2742 -4749 -70 62 c-122 107 -815 804 -995 1001
-619 677 -1102 1283 -1605 2015 -163 237 -321 385 -527 495 -355 189 -776 203
-1121 37 -105 -50 -2329 -1335 -2427 -1402 -265 -180 -463 -481 -535 -810 -22
-103 -30 -315 -16 -422 32 -239 85 -359 306 -688 1094 -1632 2514 -3214 4115
-4583 135 -115 249 -214 253 -221 5 -7 -1077 -1891 -2838 -4941 -1566 -2711
-2853 -4942 -2861 -4956 -12 -24 18 -286 271 -2390 157 -1300 290 -2389 296
-2419 20 -97 67 -233 114 -324 181 -355 518 -605 921 -682 190 -36 447 -16
639 50 124 42 4409 1877 4426 1894 9 9 1291 2226 2849 4925 2510 4348 2836
4908 2854 4904 12 -2 134 -46 271 -97 1798 -662 3731 -1107 5645 -1300 748
-75 1234 -100 2060 -107 806 -7 1319 9 2000 62 4374 341 8569 1924 12090 4565
2084 1562 3885 3459 5334 5620 212 316 358 546 401 629 92 184 130 367 122
596 -13 352 -149 653 -408 901 -132 126 13 42 -2264 1304 -351 195 -448 238
-605 271 -134 28 -352 31 -480 6 -294 -57 -574 -221 -761 -444 -36 -43 -152
-206 -256 -363 -1327 -1985 -3004 -3662 -4988 -4987 -1291 -862 -2730 -1571
-4194 -2067 -1561 -529 -3092 -828 -4781 -932 -348 -21 -1277 -30 -1635 -15
-1356 57 -2664 263 -4015 635 -246 67 -707 205 -847 253 l-82 28 2702 4680
2702 4680 168 0 168 0 2047 -3547 c1343 -2327 2052 -3547 2063 -3548 19 0 420
123 639 197 1970 663 3763 1708 5332 3106 225 202 654 611 651 624 -1 5 -936
1627 -2078 3606 l-2077 3596 90 173 c499 960 791 1984 862 3026 13 197 13 765
0 964 -118 1757 -794 3362 -1971 4673 -145 162 -484 496 -647 638 -1422 1242
-3244 1920 -5117 1905 -121 -1 -247 -3 -280 -5z m655 -5157 c573 -78 1081
-332 1490 -745 387 -390 622 -859 717 -1426 26 -156 26 -590 0 -753 -91 -571
-349 -1070 -753 -1462 -406 -393 -882 -625 -1459 -712 -121 -18 -540 -18 -660
0 -551 83 -1016 300 -1403 655 -682 626 -976 1558 -776 2457 102 455 330 877
658 1217 445 463 1009 728 1676 787 86 8 406 -4 510 -18z"/>
<path d="M36655 13424 c-75 -66 -536 -425 -813 -633 -1769 -1328 -3617 -2387
-5537 -3173 -121 -49 -221 -91 -223 -93 -2 -2 4354 -7552 4364 -7564 9 -10
4382 -1872 4449 -1894 128 -42 236 -58 390 -58 213 0 366 34 554 122 248 116
477 340 599 584 37 76 79 191 99 275 8 36 144 1136 303 2445 l287 2380 -2206
3822 c-1213 2103 -2210 3823 -2216 3822 -5 0 -28 -16 -50 -35z"/>
</g>
</svg>
