<?xml version="1.0" encoding="utf-8"?>
<!-- Generator: Adobe Illustrator 25.2.1, SVG Export Plug-In . SVG Version: 6.00 Build 0)  -->
<svg version="1.1" xmlns="http://www.w3.org/2000/svg" xmlns:xlink="http://www.w3.org/1999/xlink" x="0px" y="0px" width="450px"
	 height="250px" viewBox="0 0 450 250" style="enable-background:new 0 0 450 250;" xml:space="preserve">
<style type="text/css">
	.st0{fill:#434343;}
	.st1{fill:#82D1C4;}
	.st2{fill:#EE5F4D;}
</style>
<g id="RLetter">
	<path class="st0" d="M7.1,29.2c-0.9-1.5,0.2-3.4,2-3.4h94c0.2,0,0.4,0,0.6,0c4.7,0.3,48.4,7.6,59,51.7c12.8,53-30.1,74.4-40.9,77.1
		c-2.3,0.6,1.1,5.7,1.8,6.8l37.6,69c0.8,1.5-0.3,3.4-2,3.4H126c-0.8,0-1.6-0.4-2-1.1L76.4,152l-10.5-18.8c-0.8-1.5,0.2-3.4,2-3.4
		l32.5-0.2c2.9,0,5.8-0.5,8.5-1.6c8.8-3.3,23.2-14.8,22.2-31.8c-1.7-27.8-22.2-33-31.1-34.9c-2.5-0.5-5.1-0.8-7.7-0.8l-66,0.3
		c-0.8,0-1.6-0.4-2-1.2L7.1,29.2z"/>
</g>
<g id="LineOnA">
	<path class="st1" d="M346.7,223.8L248.1,29.6c-2.6-5-9.8-5-12.3,0.1L227.6,46l94.9,187.8h18.1C345.7,233.8,349,228.4,346.7,223.8z"
		/>
</g>
<g id="ALetter">
	<path class="st0" d="M225.9,49.5l-86.7,174.4c-2.3,4.6,1.1,10,6.2,10h22.3c2.6,0,4.9-1.4,6.1-3.7l61.9-120.3c2.6-5,9.7-5,12.3,0
		l60.6,120.2c1.2,2.3,3.5,3.8,6.1,3.8h4.9L225.9,49.5z"/>
</g>
<g id="LineUnder2">
	<path class="st0" d="M315.7,226.4l-1.2,2.1c-1.4,2.4,0.3,5.4,3.1,5.4h102.3c1.3,0,2.6-0.8,3.2-2l2.6-5.2L315.7,226.4z"/>
</g>
<g id="_x32_Number">
	<path class="st2" d="M299.8,55.4c0.9,1.6,2.1,2.9,3.6,3.9c0.2,0.1,0.4,0.2,0.6,0.3c1.6,0.8,3.4,1.3,5.3,1.3l47.4,0.1
		c3.2,0,6.4,0.8,9.1,2.4c36.3,20.7,15.5,54.2,14.4,55.9c0,0-0.1,0.1-0.1,0.1l-61.5,106.8l109.6,0.6l8.3-16.4
		c1.2-2.4-0.5-5.2-3.2-5.2h-57.2c-2.7,0-4.4-2.9-3.1-5.3l44.2-79.3c1.5-2.7,2.6-5.6,3.2-8.7c2-9.9,4.4-32.4-7.7-51.7
		c-17.7-28-41.5-34-49.1-35.2c-1.3-0.2-2.5-0.3-3.8-0.3h-70.7c-2.7,0-4.4,2.9-3.1,5.3L299.8,55.4z"/>
	<g>
	</g>
	<g>
	</g>
	<g>
	</g>
	<g>
	</g>
	<g>
	</g>
	<g>
	</g>
	<g>
	</g>
	<g>
	</g>
	<g>
	</g>
	<g>
	</g>
	<g>
	</g>
	<g>
	</g>
	<g>
	</g>
	<g>
	</g>
	<g>
	</g>
</g>
</svg>
